<svg width="92" height="20" viewBox="0 0 92 20" fill="none" xmlns="http://www.w3.org/2000/svg">
<path d="M4.12 1.12C4.78667 1.12 5.29333 1.2 5.64 1.36C5.98667 1.50667 6.29333 1.67333 6.56 1.86C6.72 1.95333 6.84667 2.02667 6.94 2.08C7.04667 2.12 7.14667 2.14 7.24 2.14C7.37333 2.14 7.46667 2.06667 7.52 1.92C7.58667 1.77333 7.64 1.55333 7.68 1.26H8.14C8.12667 1.48667 8.10667 1.76 8.08 2.08C8.06667 2.38667 8.05333 2.8 8.04 3.32C8.04 3.82667 8.04 4.5 8.04 5.34H7.58C7.54 4.7 7.4 4.08667 7.16 3.5C6.92 2.91333 6.56667 2.43333 6.1 2.06C5.64667 1.68667 5.04667 1.5 4.3 1.5C3.59333 1.5 3.00667 1.71333 2.54 2.14C2.08667 2.56667 1.86 3.12667 1.86 3.82C1.86 4.42 2.01333 4.92667 2.32 5.34C2.62667 5.74 3.03333 6.10667 3.54 6.44C4.06 6.76 4.62 7.10667 5.22 7.48C5.91333 7.90667 6.52667 8.33333 7.06 8.76C7.60667 9.17333 8.03333 9.63333 8.34 10.14C8.66 10.6467 8.82 11.26 8.82 11.98C8.82 12.8333 8.62667 13.54 8.24 14.1C7.85333 14.66 7.34 15.08 6.7 15.36C6.06 15.64 5.35333 15.78 4.58 15.78C3.87333 15.78 3.31333 15.7 2.9 15.54C2.48667 15.38 2.13333 15.2133 1.84 15.04C1.54667 14.8533 1.32 14.76 1.16 14.76C1.02667 14.76 0.926667 14.8333 0.86 14.98C0.806667 15.1267 0.76 15.3467 0.72 15.64H0.26C0.286667 15.36 0.3 15.0333 0.3 14.66C0.313333 14.2733 0.32 13.7733 0.32 13.16C0.333333 12.5467 0.34 11.7733 0.34 10.84H0.8C0.853333 11.64 1 12.3867 1.24 13.08C1.49333 13.7733 1.87333 14.3333 2.38 14.76C2.9 15.1733 3.58667 15.38 4.44 15.38C4.88 15.38 5.29333 15.2933 5.68 15.12C6.08 14.9333 6.40667 14.6467 6.66 14.26C6.91333 13.86 7.04 13.3467 7.04 12.72C7.04 12.1733 6.90667 11.7 6.64 11.3C6.38667 10.8867 6.02667 10.5067 5.56 10.16C5.09333 9.8 4.54667 9.43333 3.92 9.06C3.29333 8.67333 2.70667 8.28 2.16 7.88C1.61333 7.48 1.17333 7.02 0.84 6.5C0.52 5.96667 0.36 5.32667 0.36 4.58C0.36 3.79333 0.533333 3.14667 0.88 2.64C1.24 2.12 1.70667 1.74 2.28 1.5C2.85333 1.24667 3.46667 1.12 4.12 1.12ZM15.2408 4.92C16.4141 4.92 17.3274 5.28 17.9808 6C18.6474 6.70667 18.9808 7.81333 18.9808 9.32H11.9208L11.9008 8.94H17.0608C17.0874 8.28667 17.0341 7.68667 16.9008 7.14C16.7674 6.58 16.5541 6.13333 16.2608 5.8C15.9808 5.46667 15.6141 5.3 15.1608 5.3C14.5474 5.3 14.0008 5.60667 13.5208 6.22C13.0541 6.83333 12.7741 7.80667 12.6808 9.14L12.7408 9.22C12.7141 9.42 12.6941 9.64 12.6808 9.88C12.6674 10.12 12.6608 10.36 12.6608 10.6C12.6608 11.5067 12.8074 12.2867 13.1008 12.94C13.3941 13.5933 13.7741 14.0933 14.2408 14.44C14.7208 14.7733 15.2141 14.94 15.7208 14.94C16.1208 14.94 16.5008 14.88 16.8608 14.76C17.2208 14.6267 17.5541 14.4133 17.8608 14.12C18.1674 13.8267 18.4341 13.4333 18.6608 12.94L19.0608 13.1C18.9141 13.54 18.6741 13.9667 18.3408 14.38C18.0074 14.7933 17.5874 15.1333 17.0808 15.4C16.5741 15.6533 15.9874 15.78 15.3208 15.78C14.3608 15.78 13.5341 15.56 12.8408 15.12C12.1608 14.68 11.6341 14.0733 11.2608 13.3C10.9008 12.5133 10.7208 11.6133 10.7208 10.6C10.7208 9.42667 10.9074 8.42 11.2808 7.58C11.6541 6.72667 12.1808 6.07333 12.8608 5.62C13.5408 5.15333 14.3341 4.92 15.2408 4.92ZM26.718 4.92C27.078 4.92 27.3913 4.99333 27.658 5.14C27.938 5.28667 28.1513 5.48 28.298 5.72C28.458 5.94667 28.538 6.20667 28.538 6.5C28.538 6.83333 28.4313 7.12667 28.218 7.38C28.018 7.63333 27.7446 7.76 27.398 7.76C27.118 7.76 26.8713 7.67333 26.658 7.5C26.4446 7.31333 26.338 7.05333 26.338 6.72C26.338 6.46667 26.4046 6.25333 26.538 6.08C26.6846 5.89333 26.8446 5.74667 27.018 5.64C26.9246 5.50667 26.7846 5.44 26.598 5.44C26.1846 5.44 25.8046 5.56667 25.458 5.82C25.1113 6.06 24.818 6.37333 24.578 6.76C24.338 7.14667 24.1513 7.56 24.018 8C23.8846 8.42667 23.818 8.82667 23.818 9.2V13.44C23.818 14.0933 24.0046 14.5333 24.378 14.76C24.7646 14.9733 25.2846 15.08 25.938 15.08V15.5C25.6313 15.4867 25.198 15.4733 24.638 15.46C24.078 15.4333 23.4846 15.42 22.858 15.42C22.4046 15.42 21.9513 15.4333 21.498 15.46C21.058 15.4733 20.7246 15.4867 20.498 15.5V15.08C21.0446 15.08 21.4313 14.98 21.658 14.78C21.898 14.58 22.018 14.2 22.018 13.64V7.38C22.018 6.78 21.9113 6.34 21.698 6.06C21.4846 5.76667 21.0846 5.62 20.498 5.62V5.2C20.9246 5.24 21.338 5.26 21.738 5.26C22.1246 5.26 22.4913 5.24 22.838 5.2C23.198 5.14667 23.5246 5.07333 23.818 4.98V7.48C23.9646 7.09333 24.1713 6.70667 24.438 6.32C24.718 5.92 25.0513 5.58667 25.438 5.32C25.8246 5.05333 26.2513 4.92 26.718 4.92ZM33.8736 4.92C35.0469 4.92 35.9603 5.28 36.6136 6C37.2803 6.70667 37.6136 7.81333 37.6136 9.32H30.5536L30.5336 8.94H35.6936C35.7203 8.28667 35.6669 7.68667 35.5336 7.14C35.4003 6.58 35.1869 6.13333 34.8936 5.8C34.6136 5.46667 34.2469 5.3 33.7936 5.3C33.1803 5.3 32.6336 5.60667 32.1536 6.22C31.6869 6.83333 31.4069 7.80667 31.3136 9.14L31.3736 9.22C31.3469 9.42 31.3269 9.64 31.3136 9.88C31.3003 10.12 31.2936 10.36 31.2936 10.6C31.2936 11.5067 31.4403 12.2867 31.7336 12.94C32.0269 13.5933 32.4069 14.0933 32.8736 14.44C33.3536 14.7733 33.8469 14.94 34.3536 14.94C34.7536 14.94 35.1336 14.88 35.4936 14.76C35.8536 14.6267 36.1869 14.4133 36.4936 14.12C36.8003 13.8267 37.0669 13.4333 37.2936 12.94L37.6936 13.1C37.5469 13.54 37.3069 13.9667 36.9736 14.38C36.6403 14.7933 36.2203 15.1333 35.7136 15.4C35.2069 15.6533 34.6203 15.78 33.9536 15.78C32.9936 15.78 32.1669 15.56 31.4736 15.12C30.7936 14.68 30.2669 14.0733 29.8936 13.3C29.5336 12.5133 29.3536 11.6133 29.3536 10.6C29.3536 9.42667 29.5403 8.42 29.9136 7.58C30.2869 6.72667 30.8136 6.07333 31.4936 5.62C32.1736 5.15333 32.9669 4.92 33.8736 4.92ZM45.8508 4.92C46.3574 4.92 46.7774 4.98667 47.1108 5.12C47.4574 5.25333 47.7441 5.44 47.9708 5.68C48.2241 5.94667 48.4041 6.28 48.5108 6.68C48.6174 7.08 48.6708 7.62 48.6708 8.3V13.64C48.6708 14.2 48.7841 14.58 49.0108 14.78C49.2508 14.98 49.6441 15.08 50.1908 15.08V15.5C49.9641 15.4867 49.6174 15.4733 49.1508 15.46C48.6841 15.4333 48.2308 15.42 47.7908 15.42C47.3508 15.42 46.9174 15.4333 46.4908 15.46C46.0774 15.4733 45.7641 15.4867 45.5508 15.5V15.08C46.0308 15.08 46.3708 14.98 46.5708 14.78C46.7708 14.58 46.8708 14.2 46.8708 13.64V7.86C46.8708 7.44667 46.8374 7.06667 46.7708 6.72C46.7041 6.37333 46.5508 6.09333 46.3108 5.88C46.0841 5.66667 45.7308 5.56 45.2508 5.56C44.6908 5.56 44.1974 5.72 43.7708 6.04C43.3574 6.36 43.0308 6.8 42.7908 7.36C42.5641 7.90667 42.4508 8.52 42.4508 9.2V13.64C42.4508 14.2 42.5508 14.58 42.7508 14.78C42.9508 14.98 43.2908 15.08 43.7708 15.08V15.5C43.5574 15.4867 43.2374 15.4733 42.8108 15.46C42.3974 15.4333 41.9708 15.42 41.5308 15.42C41.0908 15.42 40.6374 15.4333 40.1708 15.46C39.7041 15.4733 39.3574 15.4867 39.1308 15.5V15.08C39.6774 15.08 40.0641 14.98 40.2908 14.78C40.5308 14.58 40.6508 14.2 40.6508 13.64V7.38C40.6508 6.78 40.5441 6.34 40.3308 6.06C40.1174 5.76667 39.7174 5.62 39.1308 5.62V5.2C39.5574 5.24 39.9708 5.26 40.3708 5.26C40.7574 5.26 41.1241 5.24 41.4708 5.2C41.8308 5.14667 42.1574 5.07333 42.4508 4.98V7.34C42.7974 6.43333 43.2774 5.80667 43.8908 5.46C44.5174 5.1 45.1708 4.92 45.8508 4.92ZM55.9244 4.92C57.0977 4.92 58.011 5.28 58.6644 6C59.331 6.70667 59.6644 7.81333 59.6644 9.32H52.6044L52.5844 8.94H57.7444C57.771 8.28667 57.7177 7.68667 57.5844 7.14C57.451 6.58 57.2377 6.13333 56.9444 5.8C56.6644 5.46667 56.2977 5.3 55.8444 5.3C55.231 5.3 54.6844 5.60667 54.2044 6.22C53.7377 6.83333 53.4577 7.80667 53.3644 9.14L53.4244 9.22C53.3977 9.42 53.3777 9.64 53.3644 9.88C53.351 10.12 53.3444 10.36 53.3444 10.6C53.3444 11.5067 53.491 12.2867 53.7844 12.94C54.0777 13.5933 54.4577 14.0933 54.9244 14.44C55.4044 14.7733 55.8977 14.94 56.4044 14.94C56.8044 14.94 57.1844 14.88 57.5444 14.76C57.9044 14.6267 58.2377 14.4133 58.5444 14.12C58.851 13.8267 59.1177 13.4333 59.3444 12.94L59.7444 13.1C59.5977 13.54 59.3577 13.9667 59.0244 14.38C58.691 14.7933 58.271 15.1333 57.7644 15.4C57.2577 15.6533 56.671 15.78 56.0044 15.78C55.0444 15.78 54.2177 15.56 53.5244 15.12C52.8444 14.68 52.3177 14.0733 51.9444 13.3C51.5844 12.5133 51.4044 11.6133 51.4044 10.6C51.4044 9.42667 51.591 8.42 51.9644 7.58C52.3377 6.72667 52.8644 6.07333 53.5444 5.62C54.2244 5.15333 55.0177 4.92 55.9244 4.92ZM69.742 4.92C70.2754 4.92 70.7287 5.00667 71.102 5.18C71.4754 5.35333 71.7487 5.51333 71.922 5.66C72.362 6.02 72.6287 5.78 72.722 4.94H73.182C73.1554 5.31333 73.1354 5.76 73.122 6.28C73.1087 6.78667 73.102 7.47333 73.102 8.34H72.642C72.562 7.84667 72.422 7.36667 72.222 6.9C72.0354 6.43333 71.7554 6.05333 71.382 5.76C71.0087 5.45333 70.522 5.3 69.922 5.3C69.4554 5.3 69.062 5.43333 68.742 5.7C68.4354 5.95333 68.282 6.33333 68.282 6.84C68.282 7.24 68.402 7.58667 68.642 7.88C68.882 8.16 69.1954 8.42667 69.582 8.68C69.9687 8.92 70.3887 9.18667 70.842 9.48C71.3487 9.8 71.8087 10.1267 72.222 10.46C72.6354 10.7933 72.962 11.16 73.202 11.56C73.4554 11.96 73.582 12.4333 73.582 12.98C73.582 13.5933 73.422 14.1067 73.102 14.52C72.782 14.9333 72.362 15.2467 71.842 15.46C71.3354 15.6733 70.7754 15.78 70.162 15.78C69.8687 15.78 69.5887 15.7533 69.322 15.7C69.0687 15.66 68.822 15.5933 68.582 15.5C68.4487 15.4333 68.3087 15.3533 68.162 15.26C68.0287 15.1667 67.8954 15.0667 67.762 14.96C67.6287 14.8533 67.5087 14.86 67.402 14.98C67.2954 15.0867 67.2154 15.3067 67.162 15.64H66.702C66.7287 15.2133 66.7487 14.6933 66.762 14.08C66.7754 13.4667 66.782 12.6533 66.782 11.64H67.242C67.3354 12.3867 67.4687 13.04 67.642 13.6C67.8154 14.16 68.0887 14.6 68.462 14.92C68.8354 15.2267 69.3554 15.38 70.022 15.38C70.2887 15.38 70.5554 15.32 70.822 15.2C71.102 15.08 71.3354 14.88 71.522 14.6C71.7087 14.32 71.802 13.9467 71.802 13.48C71.802 12.8933 71.5887 12.4133 71.162 12.04C70.7354 11.6667 70.1954 11.2733 69.542 10.86C69.062 10.5533 68.6087 10.2467 68.182 9.94C67.7687 9.63333 67.4287 9.28667 67.162 8.9C66.9087 8.51333 66.782 8.04667 66.782 7.5C66.782 6.9 66.9154 6.41333 67.182 6.04C67.462 5.65333 67.8287 5.37333 68.282 5.2C68.7354 5.01333 69.222 4.92 69.742 4.92ZM77.3873 0.199999C77.734 0.199999 78.034 0.326666 78.2873 0.579999C78.5407 0.833332 78.6673 1.13333 78.6673 1.48C78.6673 1.82667 78.5407 2.12667 78.2873 2.38C78.034 2.63333 77.734 2.76 77.3873 2.76C77.0407 2.76 76.7407 2.63333 76.4873 2.38C76.234 2.12667 76.1073 1.82667 76.1073 1.48C76.1073 1.13333 76.234 0.833332 76.4873 0.579999C76.7407 0.326666 77.0407 0.199999 77.3873 0.199999ZM78.4273 4.98V13.64C78.4273 14.2 78.5407 14.58 78.7673 14.78C79.0073 14.98 79.4007 15.08 79.9473 15.08V15.5C79.7207 15.4867 79.374 15.4733 78.9073 15.46C78.454 15.4333 77.994 15.42 77.5273 15.42C77.074 15.42 76.614 15.4333 76.1473 15.46C75.6807 15.4733 75.334 15.4867 75.1073 15.5V15.08C75.654 15.08 76.0407 14.98 76.2673 14.78C76.5073 14.58 76.6273 14.2 76.6273 13.64V7.38C76.6273 6.78 76.5207 6.34 76.3073 6.06C76.094 5.76667 75.694 5.62 75.1073 5.62V5.2C75.534 5.24 75.9473 5.26 76.3473 5.26C76.734 5.26 77.1007 5.24 77.4473 5.2C77.8073 5.14667 78.134 5.07333 78.4273 4.98ZM84.1467 4.98V17.26C84.1467 17.8333 84.3134 18.2133 84.6467 18.4C84.9934 18.6 85.4667 18.7 86.0667 18.7V19.12C85.7734 19.1067 85.3667 19.0867 84.8467 19.06C84.3267 19.0467 83.7734 19.04 83.1867 19.04C82.7734 19.04 82.3601 19.0467 81.9467 19.06C81.5467 19.0867 81.2401 19.1067 81.0267 19.12V18.7C81.5067 18.7 81.8467 18.6133 82.0467 18.44C82.2467 18.2667 82.3467 17.94 82.3467 17.46V7.38C82.3467 6.78 82.2401 6.34 82.0267 6.06C81.8134 5.76667 81.4134 5.62 80.8267 5.62V5.2C81.2534 5.24 81.6667 5.26 82.0667 5.26C82.4534 5.26 82.8201 5.24 83.1667 5.2C83.5267 5.14667 83.8534 5.07333 84.1467 4.98ZM87.3467 4.92C88.0534 4.92 88.6867 5.11333 89.2467 5.5C89.8067 5.87333 90.2467 6.42667 90.5667 7.16C90.9001 7.89333 91.0667 8.8 91.0667 9.88C91.0667 10.6 90.9801 11.3133 90.8067 12.02C90.6334 12.7133 90.3601 13.3467 89.9867 13.92C89.6267 14.48 89.1534 14.9333 88.5667 15.28C87.9934 15.6133 87.3001 15.78 86.4867 15.78C85.8601 15.78 85.3134 15.6333 84.8467 15.34C84.3934 15.0467 84.0867 14.6933 83.9267 14.28L84.1267 14C84.3134 14.3733 84.5801 14.6867 84.9267 14.94C85.2867 15.1933 85.7334 15.32 86.2667 15.32C87.0134 15.32 87.5934 15.0867 88.0067 14.62C88.4201 14.1533 88.7067 13.5333 88.8667 12.76C89.0401 11.9733 89.1267 11.1067 89.1267 10.16C89.1267 9.09333 89.0401 8.22 88.8667 7.54C88.6934 6.86 88.4334 6.35333 88.0867 6.02C87.7401 5.68667 87.3134 5.52 86.8067 5.52C86.1534 5.52 85.5601 5.79333 85.0267 6.34C84.4934 6.87333 84.1534 7.68667 84.0067 8.78L83.7667 8.5C83.9134 7.36667 84.3134 6.48667 84.9667 5.86C85.6334 5.23333 86.4267 4.92 87.3467 4.92Z" fill="black"/>
</svg>
