<svg width="24" height="24" viewBox="0 0 24 24" fill="none" xmlns="http://www.w3.org/2000/svg">
<g id="dessert">
<path id="Vector (Stroke)" fill-rule="evenodd" clip-rule="evenodd" d="M11.0293 3.75885C11.0101 3.83608 11 3.91686 11 4C11 4.55228 11.4477 5 12 5C12.5523 5 13 4.55228 13 4C13 3.91686 12.9899 3.83608 12.9707 3.75885C12.9058 3.6626 12.8576 3.55506 12.8292 3.44082C12.6495 3.17486 12.3451 3 12 3C11.6549 3 11.3505 3.17486 11.1708 3.44082C11.1424 3.55506 11.0942 3.6626 11.0293 3.75885ZM9.04459 4.51822C5.50853 5.70535 3 9.06069 3 13C3 13.2652 3.10536 13.5196 3.29289 13.7071C3.33862 13.7528 3.38831 13.7937 3.44117 13.8293C3.55484 13.8576 3.66213 13.9057 3.75829 13.9704C3.83671 13.9899 3.91783 14 4 14C4.26522 14 4.51957 13.8946 4.70711 13.7071C4.89464 13.5196 5 13.2652 5 13V12C5 11.2044 5.31607 10.4413 5.87868 9.87868C6.44129 9.31607 7.20435 9 8 9C8.79565 9 9.55871 9.31607 10.1213 9.87868C10.6839 10.4413 11 11.2043 11 12V16C11 16.2652 11.1054 16.5196 11.2929 16.7071C11.4804 16.8946 11.7348 17 12 17C12.2652 17 12.5196 16.8946 12.7071 16.7071C12.8946 16.5196 13 16.2652 13 16V12C13 11.2043 13.3161 10.4413 13.8787 9.87868C14.4413 9.31607 15.2043 9 16 9C16.7957 9 17.5587 9.31607 18.1213 9.87868C18.6839 10.4413 19 11.2043 19 12V13C19 13.2652 19.1054 13.5196 19.2929 13.7071C19.4804 13.8946 19.7348 14 20 14C20.0822 14 20.1633 13.9899 20.2417 13.9704C20.3379 13.9057 20.4452 13.8576 20.5588 13.8293C20.6117 13.7937 20.6614 13.7528 20.7071 13.7071C20.8946 13.5196 21 13.2652 21 13C21 9.06069 18.4915 5.70535 14.9554 4.51822C14.7099 5.9281 13.4801 7 12 7C10.5199 7 9.2901 5.9281 9.04459 4.51822ZM14.4821 2.31455C19.4035 3.39895 23 7.79466 23 13C23 13.7957 22.6839 14.5587 22.1213 15.1213C21.9794 15.2633 21.8247 15.3895 21.6599 15.4989C21.114 17.5385 19.935 19.3576 18.2863 20.6902C16.5069 22.1286 14.288 22.9132 12 22.9132C9.71195 22.9132 7.4931 22.1286 5.71368 20.6902C4.06502 19.3576 2.88597 17.5385 2.34008 15.4989C2.17532 15.3895 2.02062 15.2633 1.87868 15.1213C1.31607 14.5587 1 13.7956 1 13C1 7.79466 4.59651 3.39895 9.51786 2.31455C10.0577 1.52111 10.968 1 12 1C13.032 1 13.9423 1.52111 14.4821 2.31455ZM4.59487 15.9404C5.10221 17.1815 5.91652 18.2825 6.97094 19.1348C8.39448 20.2855 10.1696 20.9132 12 20.9132C13.8304 20.9132 15.6055 20.2855 17.0291 19.1348C18.0835 18.2825 18.8978 17.1815 19.4051 15.9404C18.8311 15.8243 18.299 15.5416 17.8787 15.1213C17.3161 14.5587 17 13.7957 17 13V12C17 11.7348 16.8946 11.4804 16.7071 11.2929C16.5196 11.1054 16.2652 11 16 11C15.7348 11 15.4804 11.1054 15.2929 11.2929C15.1054 11.4804 15 11.7348 15 12V16C15 16.7957 14.6839 17.5587 14.1213 18.1213C13.5587 18.6839 12.7957 19 12 19C11.2043 19 10.4413 18.6839 9.87868 18.1213C9.31607 17.5587 9 16.7957 9 16V12C9 11.7348 8.89464 11.4804 8.70711 11.2929C8.51957 11.1054 8.26522 11 8 11C7.73478 11 7.48043 11.1054 7.29289 11.2929C7.10536 11.4804 7 11.7348 7 12V13C7 13.7956 6.68393 14.5587 6.12132 15.1213C5.70104 15.5416 5.16889 15.8243 4.59487 15.9404Z" fill="black"/>
</g>
</svg>
