<svg width="24" height="24" viewBox="0 0 24 24" fill="none" xmlns="http://www.w3.org/2000/svg">
<g id="flower">
<path id="Vector (Stroke)" fill-rule="evenodd" clip-rule="evenodd" d="M6.42701 2.10568C7.4939 1.89346 8.59977 2.00238 9.60476 2.41867C10.5699 2.81844 11.4004 3.48445 12 4.33773C12.5996 3.48445 13.4301 2.81844 14.3952 2.41867C15.4002 2.00238 16.5061 1.89346 17.573 2.10568C18.6399 2.3179 19.6199 2.84173 20.3891 3.61091C21.1583 4.3801 21.6821 5.36011 21.8943 6.42701C22.1065 7.4939 21.9976 8.59977 21.5813 9.60476C21.1816 10.5699 20.5156 11.4004 19.6623 12C20.5156 12.5996 21.1816 13.4301 21.5813 14.3952C21.9976 15.4002 22.1065 16.5061 21.8943 17.573C21.6821 18.6399 21.1583 19.6199 20.3891 20.3891C19.6199 21.1583 18.6399 21.6821 17.573 21.8943C16.5061 22.1065 15.4002 21.9976 14.3952 21.5813C13.4301 21.1816 12.5996 20.5156 12 19.6623C11.4004 20.5156 10.5699 21.1816 9.60476 21.5813C8.59977 21.9976 7.4939 22.1065 6.42701 21.8943C5.36011 21.6821 4.3801 21.1583 3.61091 20.3891C2.84173 19.6199 2.3179 18.6399 2.10568 17.573C1.89346 16.5061 2.00238 15.4002 2.41867 14.3952C2.81844 13.4301 3.48445 12.5996 4.33773 12C3.48445 11.4004 2.81844 10.5699 2.41867 9.60476C2.00238 8.59977 1.89346 7.4939 2.10568 6.42701C2.3179 5.36011 2.84173 4.3801 3.61091 3.61091C4.3801 2.84173 5.36011 2.3179 6.42701 2.10568ZM7.5 11C6.80777 11 6.13108 10.7947 5.55551 10.4101C4.97993 10.0256 4.53133 9.47894 4.26642 8.83939C4.00152 8.19985 3.93221 7.49612 4.06725 6.81719C4.2023 6.13825 4.53565 5.51461 5.02513 5.02513C5.51461 4.53565 6.13825 4.2023 6.81719 4.06725C7.49612 3.93221 8.19985 4.00152 8.83939 4.26642C9.47894 4.53133 10.0256 4.97993 10.4101 5.55551C10.7947 6.13108 11 6.80777 11 7.5V8.12602C10.633 8.22048 10.2863 8.36573 9.96803 8.55382L8.70711 7.2929C8.31659 6.90237 7.68342 6.90237 7.2929 7.2929C6.90237 7.68342 6.90237 8.31659 7.2929 8.70711L8.55382 9.96803C8.36573 10.2863 8.22048 10.633 8.12602 11H7.5ZM8.12602 13H7.5C6.80777 13 6.13108 13.2053 5.55551 13.5899C4.97993 13.9744 4.53133 14.5211 4.26642 15.1606C4.00152 15.8002 3.93221 16.5039 4.06725 17.1828C4.2023 17.8618 4.53564 18.4854 5.02513 18.9749C5.51461 19.4644 6.13825 19.7977 6.81719 19.9328C7.49612 20.0678 8.19985 19.9985 8.83939 19.7336C9.47894 19.4687 10.0256 19.0201 10.4101 18.4445C10.7947 17.8689 11 17.1922 11 16.5V15.874C10.633 15.7795 10.2863 15.6343 9.96803 15.4462L8.70711 16.7071C8.31659 17.0976 7.68342 17.0976 7.2929 16.7071C6.90237 16.3166 6.90237 15.6834 7.2929 15.2929L8.55382 14.032C8.36573 13.7137 8.22048 13.367 8.12602 13ZM13 15.874V16.5C13 17.1922 13.2053 17.8689 13.5899 18.4445C13.9744 19.0201 14.5211 19.4687 15.1606 19.7336C15.8002 19.9985 16.5039 20.0678 17.1828 19.9328C17.8618 19.7977 18.4854 19.4644 18.9749 18.9749C19.4644 18.4854 19.7977 17.8618 19.9328 17.1828C20.0678 16.5039 19.9985 15.8002 19.7336 15.1606C19.4687 14.5211 19.0201 13.9744 18.4445 13.5899C17.8689 13.2053 17.1922 13 16.5 13H15.874C15.7795 13.367 15.6343 13.7137 15.4462 14.032L16.7071 15.2929C17.0976 15.6834 17.0976 16.3166 16.7071 16.7071C16.3166 17.0976 15.6834 17.0976 15.2929 16.7071L14.032 15.4462C13.7137 15.6343 13.367 15.7795 13 15.874ZM15.874 11H16.5C17.1922 11 17.8689 10.7947 18.4445 10.4101C19.0201 10.0256 19.4687 9.47894 19.7336 8.83939C19.9985 8.19985 20.0678 7.49612 19.9328 6.81719C19.7977 6.13825 19.4644 5.51461 18.9749 5.02513C18.4854 4.53564 17.8618 4.2023 17.1828 4.06725C16.5039 3.93221 15.8002 4.00152 15.1606 4.26642C14.5211 4.53133 13.9744 4.97993 13.5899 5.55551C13.2053 6.13108 13 6.80777 13 7.5V8.12602C13.367 8.22048 13.7137 8.36573 14.032 8.55382L15.2929 7.2929C15.6834 6.90237 16.3166 6.90237 16.7071 7.2929C17.0976 7.68342 17.0976 8.31659 16.7071 8.70711L15.4462 9.96803C15.6343 10.2863 15.7795 10.633 15.874 11ZM12 10C10.8954 10 10 10.8954 10 12C10 13.1046 10.8954 14 12 14C13.1046 14 14 13.1046 14 12C14 10.8954 13.1046 10 12 10Z" fill="black"/>
</g>
</svg>
