<svg width="20" height="19" viewBox="0 0 20 19" fill="none" xmlns="http://www.w3.org/2000/svg">
<path id="favorite" d="M10 18.3234C9.76667 18.3234 9.52917 18.2818 9.2875 18.1984C9.04583 18.1151 8.83333 17.9818 8.65 17.7984L6.925 16.2234C5.15833 14.6068 3.5625 13.0026 2.1375 11.4109C0.7125 9.81927 0 8.0651 0 6.14844C0 4.58177 0.525 3.27344 1.575 2.22344C2.625 1.17344 3.93333 0.648438 5.5 0.648438C6.38333 0.648438 7.21667 0.835938 8 1.21094C8.78333 1.58594 9.45 2.09844 10 2.74844C10.55 2.09844 11.2167 1.58594 12 1.21094C12.7833 0.835938 13.6167 0.648438 14.5 0.648438C16.0667 0.648438 17.375 1.17344 18.425 2.22344C19.475 3.27344 20 4.58177 20 6.14844C20 8.0651 19.2917 9.82344 17.875 11.4234C16.4583 13.0234 14.85 14.6318 13.05 16.2484L11.35 17.7984C11.1667 17.9818 10.9542 18.1151 10.7125 18.1984C10.4708 18.2818 10.2333 18.3234 10 18.3234ZM9.05 4.74844C8.56667 4.0651 8.05 3.54427 7.5 3.18594C6.95 2.8276 6.28333 2.64844 5.5 2.64844C4.5 2.64844 3.66667 2.98177 3 3.64844C2.33333 4.3151 2 5.14844 2 6.14844C2 7.0151 2.30833 7.93594 2.925 8.91094C3.54167 9.88594 4.27917 10.8318 5.1375 11.7484C5.99583 12.6651 6.87917 13.5234 7.7875 14.3234C8.69583 15.1234 9.43333 15.7818 10 16.2984C10.5667 15.7818 11.3042 15.1234 12.2125 14.3234C13.1208 13.5234 14.0042 12.6651 14.8625 11.7484C15.7208 10.8318 16.4583 9.88594 17.075 8.91094C17.6917 7.93594 18 7.0151 18 6.14844C18 5.14844 17.6667 4.3151 17 3.64844C16.3333 2.98177 15.5 2.64844 14.5 2.64844C13.7167 2.64844 13.05 2.8276 12.5 3.18594C11.95 3.54427 11.4333 4.0651 10.95 4.74844C10.8333 4.9151 10.6917 5.0401 10.525 5.12344C10.3583 5.20677 10.1833 5.24844 10 5.24844C9.81667 5.24844 9.64167 5.20677 9.475 5.12344C9.30833 5.0401 9.16667 4.9151 9.05 4.74844Z" fill="black"/>
</svg>
