<svg width="20" height="19" viewBox="0 0 20 19" fill="none" xmlns="http://www.w3.org/2000/svg">
<path id="favorite" d="M10 18.3254C9.76667 18.3254 9.52917 18.2837 9.2875 18.2004C9.04583 18.1171 8.83333 17.9837 8.65 17.8004L6.925 16.2254C5.15833 14.6087 3.5625 13.0046 2.1375 11.4129C0.7125 9.82122 0 8.06706 0 6.15039C0 4.58372 0.525 3.27539 1.575 2.22539C2.625 1.17539 3.93333 0.650391 5.5 0.650391C6.38333 0.650391 7.21667 0.837891 8 1.21289C8.78333 1.58789 9.45 2.10039 10 2.75039C10.55 2.10039 11.2167 1.58789 12 1.21289C12.7833 0.837891 13.6167 0.650391 14.5 0.650391C16.0667 0.650391 17.375 1.17539 18.425 2.22539C19.475 3.27539 20 4.58372 20 6.15039C20 8.06706 19.2917 9.82539 17.875 11.4254C16.4583 13.0254 14.85 14.6337 13.05 16.2504L11.35 17.8004C11.1667 17.9837 10.9542 18.1171 10.7125 18.2004C10.4708 18.2837 10.2333 18.3254 10 18.3254Z" fill="#F28482"/>
</svg>
