<svg width="24" height="25" viewBox="0 0 24 25" fill="none" xmlns="http://www.w3.org/2000/svg">
<g id="facebook">
<path id="Vector (Stroke)" fill-rule="evenodd" clip-rule="evenodd" d="M10.7574 3.14017C11.8826 2.01495 13.4087 1.38281 15 1.38281H18C18.5523 1.38281 19 1.83053 19 2.38281V6.38281C19 6.9351 18.5523 7.38281 18 7.38281H15V9.38281H18C18.3079 9.38281 18.5987 9.52468 18.7882 9.7674C18.9777 10.0101 19.0448 10.3266 18.9701 10.6253L17.9701 14.6253C17.8589 15.0705 17.4589 15.3828 17 15.3828H15V22.3828C15 22.9351 14.5523 23.3828 14 23.3828H10C9.44772 23.3828 9 22.9351 9 22.3828V15.3828H7C6.44772 15.3828 6 14.9351 6 14.3828V10.3828C6 9.83053 6.44772 9.38281 7 9.38281H9V7.38281C9 5.79151 9.63214 4.26539 10.7574 3.14017ZM15 3.38281C13.9391 3.38281 12.9217 3.80424 12.1716 4.55439C11.4214 5.30453 11 6.32195 11 7.38281V10.3828C11 10.9351 10.5523 11.3828 10 11.3828H8V13.3828H10C10.5523 13.3828 11 13.8305 11 14.3828V21.3828H13V14.3828C13 13.8305 13.4477 13.3828 14 13.3828H16.2192L16.7192 11.3828H14C13.4477 11.3828 13 10.9351 13 10.3828V7.38281C13 6.85238 13.2107 6.34367 13.5858 5.9686C13.9609 5.59353 14.4696 5.38281 15 5.38281H17V3.38281H15Z" fill="#32373B"/>
</g>
</svg>
