<svg width="24" height="25" viewBox="0 0 24 25" fill="none" xmlns="http://www.w3.org/2000/svg">
<g id="instagram">
<path id="Vector (Stroke)" fill-rule="evenodd" clip-rule="evenodd" d="M7 3.38281C4.79086 3.38281 3 5.17367 3 7.38281V17.3828C3 19.592 4.79086 21.3828 7 21.3828H17C19.2091 21.3828 21 19.592 21 17.3828V7.38281C21 5.17367 19.2091 3.38281 17 3.38281H7ZM1 7.38281C1 4.0691 3.68629 1.38281 7 1.38281H17C20.3137 1.38281 23 4.0691 23 7.38281V17.3828C23 20.6965 20.3137 23.3828 17 23.3828H7C3.68629 23.3828 1 20.6965 1 17.3828V7.38281ZM16.5 6.88281C16.5 6.33053 16.9477 5.88281 17.5 5.88281H17.51C18.0623 5.88281 18.51 6.33053 18.51 6.88281C18.51 7.4351 18.0623 7.88281 17.51 7.88281H17.5C16.9477 7.88281 16.5 7.4351 16.5 6.88281ZM12.4833 9.372C11.8591 9.27944 11.2217 9.38605 10.6616 9.67668C10.1015 9.9673 9.64726 10.4271 9.36356 10.9908C9.07987 11.5544 8.98112 12.1932 9.08137 12.8162C9.18162 13.4392 9.47575 14.0147 9.92195 14.4609C10.3681 14.9071 10.9437 15.2012 11.5667 15.3014C12.1897 15.4017 12.8284 15.3029 13.392 15.0193C13.9557 14.7356 14.4155 14.2814 14.7061 13.7213C14.9968 13.1612 15.1034 12.5237 15.0108 11.8995C14.9164 11.2628 14.6197 10.6734 14.1646 10.2182C13.7095 9.76309 13.12 9.46641 12.4833 9.372ZM9.74041 7.90143C10.6739 7.41706 11.7364 7.23936 12.7767 7.39363C13.8378 7.55098 14.8202 8.04546 15.5788 8.80401C16.3374 9.56257 16.8318 10.545 16.9892 11.6061C17.1434 12.6464 16.9658 13.7089 16.4814 14.6424C15.997 15.5759 15.2306 16.3329 14.2912 16.8057C13.3518 17.2785 12.2872 17.4431 11.2489 17.276C10.2106 17.109 9.25138 16.6187 8.50773 15.8751C7.76408 15.1314 7.27385 14.1722 7.10677 13.1339C6.93969 12.0956 7.10427 11.031 7.57709 10.0916C8.04992 9.1522 8.80692 8.3858 9.74041 7.90143Z" fill="#32373B"/>
</g>
</svg>
