<svg width="24" height="25" viewBox="0 0 24 25" fill="none" xmlns="http://www.w3.org/2000/svg">
<g id="twitter">
<path id="Vector (Stroke)" fill-rule="evenodd" clip-rule="evenodd" d="M14.4996 5.7444C13.3849 6.32521 12.6282 7.54115 12.9779 9.17302C13.0401 9.46327 12.9701 9.76616 12.7869 9.99972C12.6037 10.2333 12.3262 10.3734 12.0295 10.3821C8.8533 10.4755 5.68323 9.29011 3.33194 7.16048C2.17223 10.9409 4.34471 15.2419 8.28743 16.4247C8.63595 16.5293 8.90018 16.8149 8.97734 17.1705C9.0545 17.5261 8.93243 17.8955 8.65859 18.1351C7.72719 18.9501 6.6254 19.5496 5.44473 19.925C12.6551 22.1284 20.3026 16.0028 19.0126 7.94054C18.962 7.6239 19.0662 7.30218 19.293 7.07544C19.4741 6.89428 19.6445 6.69037 19.8029 6.4749C19.5442 6.53857 19.2701 6.58255 19.0001 6.58255C18.7468 6.58255 18.5029 6.48643 18.3178 6.3136C17.1476 5.22148 15.6361 5.15232 14.4996 5.7444ZM22.0001 4.38255C22.9488 4.69877 22.9487 4.69895 22.9486 4.69914L22.9473 4.70308L22.9448 4.71045L22.9367 4.73411C22.9299 4.75377 22.9203 4.78108 22.9079 4.81534C22.8831 4.88382 22.8472 4.98027 22.8003 5.09891C22.7066 5.33563 22.5679 5.66367 22.3853 6.03572C22.0842 6.64891 21.6424 7.4262 21.0565 8.11122C22.3643 18.702 10.6486 26.3144 1.44762 20.2161C1.07288 19.9677 0.909959 19.4998 1.0494 19.0724C1.18885 18.645 1.59638 18.3632 2.04549 18.3836C3.40598 18.4454 4.75236 18.1639 5.91186 17.5842C1.55046 15.178 -0.367411 9.48456 2.12146 4.90503C2.27908 4.61501 2.56968 4.42145 2.89805 4.38777C3.22641 4.35408 3.55025 4.48462 3.76347 4.7366C5.5321 6.82681 8.16427 8.14155 10.8911 8.35615C10.9017 6.36281 12.0241 4.77901 13.5755 3.9707C15.2934 3.07567 17.5349 3.13112 19.3144 4.53534C19.4009 4.51437 19.5004 4.48565 19.6127 4.44771C19.8908 4.3537 20.1895 4.22322 20.4727 4.08448C20.7537 3.94687 21.0052 3.80816 21.1869 3.70352C21.2773 3.65145 21.3493 3.60845 21.3977 3.57908C21.4219 3.56441 21.4401 3.55318 21.4518 3.54598L21.4642 3.53827L21.4661 3.53706C21.8234 3.31149 22.2842 3.33475 22.6168 3.59539C22.9496 3.85608 23.0823 4.29816 22.9486 4.69914L22.0001 4.38255Z" fill="#32373B"/>
</g>
</svg>
